<?xml version="1.0" standalone="no"?>
<!DOCTYPE svg PUBLIC "-//W3C//DTD SVG 20010904//EN"
 "http://www.w3.org/TR/2001/REC-SVG-20010904/DTD/svg10.dtd">
<svg version="1.0" xmlns="http://www.w3.org/2000/svg"
 width="260.000000pt" height="260.000000pt" viewBox="0 0 260.000000 260.000000"
 preserveAspectRatio="xMidYMid meet">
<metadata>
Created by potrace 1.14, written by Peter Selinger 2001-2017
</metadata>
<g transform="translate(0.000000,260.000000) scale(0.100000,-0.100000)"
fill="#000000" stroke="none">
<path d="M1155 1910 c-22 -4 -77 -13 -123 -20 -77 -10 -132 -27 -176 -51 -13
-7 -16 -7 -11 0 3 6 1 11 -5 11 -23 0 -316 -122 -351 -146 -54 -37 -84 -98
-75 -156 7 -43 69 -156 95 -172 15 -10 14 4 -2 23 -19 22 -60 91 -54 91 2 0
20 -24 39 -52 41 -63 53 -128 37 -209 -11 -55 -12 -57 -53 -69 -52 -15 -200
-72 -291 -112 -85 -37 -157 -87 -151 -105 8 -21 -5 -77 -15 -62 -4 7 -3 21 2
30 14 27 10 36 -6 15 -49 -64 20 -147 160 -192 50 -16 89 -19 246 -19 l185 0
103 52 103 52 89 -34 c109 -42 309 -92 404 -100 61 -6 80 -3 145 20 94 34 292
133 303 151 10 18 120 83 159 95 28 8 51 3 158 -37 69 -26 162 -62 208 -81 46
-19 88 -33 94 -31 14 5 80 216 74 237 -3 10 11 28 40 51 75 58 107 105 112
165 9 108 -53 210 -196 323 -91 73 -289 181 -406 221 -96 34 -313 91 -344 91
-11 0 -22 7 -26 15 -3 8 -11 15 -18 14 -10 0 -10 -2 0 -6 6 -2 10 -8 7 -13 -7
-11 -45 0 -45 13 0 8 -3 8 -10 1 -7 -7 -28 -8 -58 -3 -60 10 -295 9 -347 -1z
m-146 -44 c-2 -2 -22 -6 -44 -9 -28 -5 -34 -4 -20 3 19 8 73 14 64 6z m-184
-45 c-12 -10 -215 -101 -227 -101 -5 0 -36 -13 -69 -30 -33 -16 -57 -25 -54
-20 12 19 122 75 229 116 114 44 137 51 121 35z m208 -121 c42 -13 67 -27 70
-38 3 -9 13 -51 22 -92 10 -41 24 -88 32 -103 8 -15 11 -32 8 -37 -3 -5 -67
-51 -142 -100 -173 -116 -171 -116 -271 3 l-74 88 40 92 c22 51 45 109 52 130
23 73 134 97 263 57z m-228 -450 c3 -5 1 -10 -4 -10 -6 0 -11 5 -11 10 0 6 2
10 4 10 3 0 8 -4 11 -10z m1633 -170 c-7 -10 -14 -17 -17 -15 -4 4 18 35 25
35 2 0 -1 -9 -8 -20z m-308 -45 c6 -8 9 -23 5 -35 -7 -23 -25 -27 -25 -6 0 15
-16 16 -37 3 -19 -12 -16 13 4 35 20 22 36 23 53 3z"/>
<path d="M1065 1650 c3 -5 8 -10 11 -10 2 0 4 5 4 10 0 6 -5 10 -11 10 -5 0
-7 -4 -4 -10z"/>
<path d="M1073 1617 c4 -10 7 -30 7 -43 0 -13 4 -24 9 -24 10 0 -3 68 -15 78
-4 4 -4 -1 -1 -11z"/>
<path d="M1101 1514 c0 -11 3 -14 6 -6 3 7 2 16 -1 19 -3 4 -6 -2 -5 -13z"/>
<path d="M1107 1449 c7 -7 15 -10 18 -7 3 3 -2 9 -12 12 -14 6 -15 5 -6 -5z"/>
</g>
</svg>
